<svg xmlns="http://www.w3.org/2000/svg" viewBox="177 182 670 670" width="1024" height="1024">
<defs><linearGradient id="g" x1="0" y1="0" x2="1" y2="1">
  <stop offset="0" stop-color="#2C68AA"/>
  <stop offset="1" stop-color="#37A4BD"/>
</linearGradient>
<mask id="cut" maskUnits="userSpaceOnUse" x="-512" y="-512" width="2048" height="2048">
  <rect x="-512" y="-512" width="2048" height="2048" fill="#FFFFFF"/>
  <path d="M 288 596 C 360 596 396 584 432 508 C 470 428 486 384 512 384 C 538 384 554 428 592 508 C 628 584 664 596 736 596" fill="none" stroke="#000000" stroke-width="42" stroke-linecap="round" stroke-linejoin="round"/>
</mask></defs>
<rect x="232" y="232" width="560" height="470" rx="120" ry="120" fill="#FFFFFF"/>
  <path d="M 384 644 L 300 802 L 476 644 Z" fill="#FFFFFF"/> <path d="M 288 596 C 360 596 396 584 432 508 C 470 428 486 384 512 384 C 538 384 554 428 592 508 C 628 584 664 596 736 596" fill="none" stroke="#20528C" stroke-width="42" stroke-linecap="round" stroke-linejoin="round"/>
</svg>
